# xmcd
#
# Track frame offsets:
#	150
#	18629
#	34328
#	50794
#	71296
#	84752
#	104336
#	120730
#	134561
#	149552
#
# Disc length: 2132 seconds
# Revision: 0
# Processed by: cddbd v1.5.2PL0 Copyright (c) Steve Scherf et al.
# Submitted via: dBpowerAMP V12.0
#
DISCID=9108520a
DTITLE=Plastic Spurs - Back in The Saddle
DYEAR=1900
DGENRE=Country
TTITLE0=Much More Than You
TTITLE1=Last Of The River Boats
TTITLE2=Talk Of The Town
TTITLE3=Scratched By Lace
TTITLE4=Talk About Me
TTITLE5=Thanks For The Ride
TTITLE6=Billy's Got His Beer Goggles On
TTITLE7=I Wont Date You
TTITLE8=Gallipolli
TTITLE9=Pipeline
EXTD=
EXTT0=
EXTT1=
EXTT2=
EXTT3=
EXTT4=
EXTT5=
EXTT6=
EXTT7=
EXTT8=
EXTT9=
PLAYORDER=
